<svg height="512pt" viewBox="0 -22 512 512" width="512pt" xmlns="http://www.w3.org/2000/svg"><path d="m64.59375 277.332031v-62.511719h44.703125c2.699219-8.550781 6.152344-16.859374 10.308594-24.824218l-31.628907-31.628906 65.355469-65.355469 31.628907 31.628906c7.964843-4.15625 16.273437-7.609375 24.824218-10.3125v-44.699219h92.425782v44.699219c8.554687 2.703125 16.863281 6.152344 24.828124 10.3125l31.628907-31.628906 65.351562 65.355469-31.628906 31.628906c4.160156 7.964844 7.609375 16.269531 10.3125 24.824218h44.703125v62.511719h64.59375v-202.332031c0-41.355469-33.644531-75-75-75h-362c-41.355469 0-75 33.644531-75 75v202.332031zm0 0"/><path d="m182.847656 260.820312c0-40.339843 32.816406-73.15625 73.152344-73.15625s73.152344 32.816407 73.152344 73.15625c0 5.679688-.671875 11.199219-1.902344 16.511719l90.15625-.085937v-32.425782h-38.652344c-2.894531-22.03125-11.605468-42.253906-24.535156-59.082031l27.375-27.371093-22.929688-22.929688-27.371093 27.375c-16.824219-12.929688-37.050781-21.640625-59.082031-24.535156v-38.648438h-32.425782v38.648438c-22.03125 2.894531-42.253906 11.605468-59.082031 24.535156l-27.371094-27.375-22.929687 22.929688 27.375 27.371093c-12.929688 16.828125-21.640625 37.050781-24.535156 59.082031h-38.648438v32.425782l90.15625.085937c-1.230469-5.3125-1.902344-10.832031-1.902344-16.511719zm0 0"/><path d="m299.152344 260.820312c0-23.835937-19.320313-43.15625-43.152344-43.15625s-43.152344 19.324219-43.152344 43.15625c0 5.847657 1.167969 11.425782 3.277344 16.511719h79.75c2.109375-5.085937 3.277344-10.660156 3.277344-16.511719zm0 0"/><path d="m0 307.332031v85.332031h148.554688v44.667969h-31.222657v30h277.335938v-30h-31.222657v-44.667969h148.554688v-85.332031zm0 0"/></svg>